<?xml version="1.0" encoding="UTF-8" standalone="no"?>
<!DOCTYPE svg PUBLIC "-//W3C//DTD SVG 1.1//EN" "http://www.w3.org/Graphics/SVG/1.1/DTD/svg11.dtd">
<svg xmlns="http://www.w3.org/2000/svg" version="1.1" viewBox="0.00 0.00 1448.00 1448.00">
<path fill="#ffffff" d="
  M 166.77 0.00
  Q 180.19 11.35 193.27 23.23
  Q 255.51 79.77 259.99 84.03
  Q 262.11 86.04 264.30 88.20
  A 0.58 0.57 -44.6 0 0 265.11 88.20
  L 318.00 35.31
  Q 319.18 34.13 319.71 35.71
  Q 342.12 103.02 365.51 167.71
  C 372.47 186.94 378.61 206.27 385.02 225.98
  Q 390.71 243.48 413.18 302.93
  C 420.87 323.26 429.27 343.12 437.64 363.56
  Q 441.58 373.17 445.53 381.93
  Q 470.01 436.32 474.01 444.77
  Q 494.48 488.06 525.20 540.94
  C 530.79 550.56 535.56 557.71 541.08 567.16
  Q 542.82 570.13 544.64 570.95
  Q 634.92 611.57 748.51 662.76
  Q 748.86 662.92 749.21 662.75
  Q 770.60 652.26 788.96 642.67
  Q 844.26 613.79 877.01 596.23
  Q 914.47 576.16 974.72 540.69
  Q 982.53 536.09 991.80 530.27
  Q 1007.85 520.21 1024.47 509.77
  Q 1035.23 503.01 1041.19 498.82
  Q 1070.85 478.01 1080.13 471.62
  Q 1080.61 471.29 1081.03 470.78
  Q 1081.40 470.34 1081.51 469.72
  Q 1081.85 467.81 1082.16 465.51
  Q 1102.38 318.48 1122.81 167.81
  Q 1123.87 159.97 1124.61 156.51
  Q 1124.72 156.01 1125.19 155.80
  L 1200.05 122.82
  A 2.77 2.75 -3.1 0 0 1201.56 121.15
  L 1240.71 0.00
  L 1448.00 0.00
  L 1448.00 1448.00
  L 0.00 1448.00
  L 0.00 0.00
  L 166.77 0.00
  Z"
/>
</svg>
